<svg xmlns="http://www.w3.org/2000/svg" xmlns:xlink="http://www.w3.org/1999/xlink" x="0px" y="0px" width="686.966px" height="145.493px" viewBox="0 0 686.966 145.493" xml:space="preserve"><g id="Layer_1_copy">	<rect x="543.579" y="-341.582" fill-rule="evenodd" clip-rule="evenodd" fill="#FFFFFF" width="850.311" height="310"></rect>	<g>		<polygon fill-rule="evenodd" clip-rule="evenodd" fill="#0579B5" points="27.165,117.238 30.177,94.638 53.316,94.638    53.316,94.638 50.02,119.372 26.881,119.372   "></polygon>		<path fill-rule="evenodd" clip-rule="evenodd" fill="#0579B5" d="M53.316,94.638L33.15,72.325l6.044-45.353   c35.604,0,71.201-0.008,106.799-0.008l-4.8,36.027c-0.309,2.317-0.904,4.572-1.749,6.685c-0.708,1.769-1.597,3.449-2.644,4.991   c0.441,1.164,0.794,2.381,1.053,3.643c0.333,1.623,0.507,3.289,0.507,4.977c0,0.51-0.021,1.06-0.063,1.652   c-0.04,0.555-0.101,1.142-0.183,1.762l-1.365,10.245c-0.41,3.074-1.353,5.99-2.71,8.633c-1.406,2.74-3.26,5.194-5.424,7.235   c-2.182,2.057-4.699,3.717-7.414,4.851c-2.632,1.099-5.442,1.707-8.306,1.707H65.466l3.296-24.734h44.131   c0.066,0,0.141-0.02,0.219-0.057c0.142-0.066,0.293-0.175,0.444-0.317c0.167-0.157,0.305-0.329,0.404-0.505   c0.062-0.109,0.101-0.208,0.112-0.291l1.058-7.936H69.975c1.099-8.246,2.197-16.488,3.296-24.734h44.131   c0.066,0,0.14-0.02,0.218-0.057c0.142-0.066,0.293-0.175,0.444-0.317c0.166-0.157,0.305-0.329,0.404-0.505   c0.062-0.109,0.101-0.208,0.112-0.291l1.058-7.936H59.04L53.316,94.638L53.316,94.638z"></path>	</g>	<path fill-rule="evenodd" clip-rule="evenodd" fill="#0579B5" d="M169.647,42.083h47.936l-2.428,13.516h-33.682L178.2,73.97h30.303  l-2.323,13.515h-30.303l-5.385,30.198h-14.254L169.647,42.083L169.647,42.083z M248.626,110.925l-1.267,6.758h12.987l9.08-51.737  h-13.832l-4.435,25.34c-0.422,2.182-1.02,4.206-1.795,6.071c-0.774,1.866-1.76,3.484-2.956,4.857  c-1.197,1.373-2.604,2.446-4.224,3.221c-1.618,0.774-3.484,1.161-5.596,1.161c-2.675,0-4.681-0.739-6.019-2.217  c-1.337-1.478-2.006-3.343-2.006-5.596c0-0.774,0.017-1.39,0.053-1.848c0.035-0.457,0.088-0.897,0.158-1.32l5.279-29.669h-13.726  l-5.491,30.514c-0.211,1.337-0.352,2.499-0.422,3.484c-0.07,0.985-0.105,1.971-0.105,2.956c0,2.252,0.352,4.382,1.056,6.388  c0.704,2.006,1.76,3.748,3.168,5.227c1.408,1.478,3.132,2.657,5.174,3.537c2.042,0.88,4.399,1.32,7.074,1.32  c3.59,0,6.863-0.739,9.819-2.217c2.956-1.478,5.35-3.555,7.18-6.23H248.626L248.626,110.925z M292.866,72.703h0.845  c1.83-2.674,4.223-4.751,7.18-6.23c2.957-1.478,6.229-2.217,9.819-2.217c2.675,0,5.033,0.44,7.074,1.32  c2.041,0.88,3.766,2.059,5.174,3.537c1.408,1.478,2.464,3.221,3.168,5.227c0.704,2.006,1.056,4.135,1.056,6.388  c0,0.985-0.035,2.006-0.105,3.062c-0.071,1.056-0.211,2.182-0.422,3.379l-5.491,30.514h-13.726l5.28-29.67  c0.07-0.352,0.123-0.827,0.158-1.425c0.035-0.598,0.053-1.179,0.053-1.742c0-2.252-0.669-4.118-2.006-5.596  c-1.337-1.478-3.344-2.217-6.019-2.217c-2.112,0-3.977,0.387-5.596,1.161c-1.619,0.774-3.026,1.848-4.223,3.221  c-1.197,1.373-2.182,2.992-2.956,4.857c-0.774,1.865-1.372,3.889-1.795,6.071l-4.435,25.341h-13.832l9.08-51.737h12.987  L292.866,72.703L292.866,72.703z M355.267,119.372c-3.097,0-5.948-0.598-8.552-1.795c-2.604-1.196-4.857-2.886-6.758-5.068  c-1.901-2.182-3.379-4.769-4.434-7.76c-1.056-2.992-1.584-6.248-1.584-9.767c0-4.083,0.703-7.972,2.112-11.667  c1.408-3.696,3.414-6.951,6.018-9.767c2.604-2.816,5.684-5.068,9.239-6.757c3.555-1.689,7.514-2.535,11.879-2.535  c3.449,0,6.599,0.757,9.45,2.27c2.851,1.514,4.874,3.396,6.071,5.649h0.845l0.317-7.391l4.012-22.701h13.726l-13.304,75.6h-12.881  l1.056-6.23h-0.845c-1.408,2.041-3.431,3.871-6.071,5.491C362.922,118.562,359.491,119.372,355.267,119.372L355.267,119.372z   M363.609,77.032c-2.323,0-4.452,0.458-6.388,1.373c-1.936,0.915-3.608,2.147-5.015,3.695c-1.408,1.548-2.499,3.344-3.273,5.385  c-0.774,2.041-1.161,4.188-1.161,6.441c0,3.872,1.161,6.951,3.484,9.239c2.323,2.288,5.385,3.432,9.186,3.432  c2.041,0,4.013-0.422,5.913-1.267c1.901-0.845,3.573-2.006,5.015-3.484c1.443-1.478,2.604-3.273,3.484-5.385  c0.88-2.112,1.32-4.435,1.32-6.969c0-3.801-1.162-6.828-3.484-9.081C370.366,78.158,367.34,77.032,363.609,77.032z"></path>	<path fill-rule="evenodd" clip-rule="evenodd" fill="#0579B5" d="M411.017,42.083h25.868c3.168,0,5.983,0.493,8.447,1.479  c2.464,0.986,4.558,2.323,6.282,4.012c1.725,1.689,3.027,3.66,3.907,5.913c0.88,2.253,1.32,4.611,1.32,7.074  c0,2.393-0.37,4.558-1.109,6.493c-0.739,1.936-1.725,3.643-2.956,5.121c-1.232,1.478-2.657,2.728-4.277,3.748  c-1.619,1.021-3.273,1.848-4.962,2.481l-0.106,0.422c3.027,1.619,5.456,3.678,7.285,6.177c1.83,2.499,2.745,5.684,2.745,9.556  c0,3.308-0.704,6.37-2.112,9.186c-1.408,2.816-3.326,5.244-5.755,7.285c-2.428,2.041-5.279,3.66-8.552,4.857  c-3.273,1.196-6.811,1.795-10.611,1.795h-28.825L411.017,42.083L411.017,42.083z M432.556,74.498c2.042,0,3.942-0.264,5.702-0.792  c1.759-0.528,3.291-1.32,4.593-2.376c1.303-1.056,2.323-2.358,3.062-3.907c0.74-1.548,1.109-3.343,1.109-5.385  c0-2.886-0.933-5.385-2.798-7.497c-1.866-2.111-4.593-3.168-8.183-3.168h-16.999l-4.118,23.124H432.556L432.556,74.498z   M428.544,108.391c1.689,0,3.431-0.282,5.227-0.845c1.795-0.563,3.397-1.39,4.804-2.481c1.408-1.091,2.569-2.499,3.484-4.224  c0.915-1.724,1.372-3.748,1.372-6.071c0-3.379-1.091-6.089-3.273-8.13c-2.182-2.041-5.139-3.062-8.869-3.062h-17.95l-4.329,24.813  H428.544L428.544,108.391z M496.225,110.503h-0.422c-1.76,2.534-4.153,4.646-7.18,6.335c-3.027,1.689-6.476,2.534-10.348,2.534  c-5.068,0-9.133-1.443-12.195-4.329c-3.062-2.886-4.593-6.758-4.593-11.614c0-1.056,0.053-2.253,0.158-3.59  c0.106-1.338,0.299-2.71,0.581-4.118l5.279-29.775h9.714l-5.491,31.042c-0.281,1.408-0.422,2.816-0.422,4.224  c0,3.167,0.968,5.508,2.904,7.021c1.936,1.513,4.523,2.27,7.761,2.27c2.111,0,4.1-0.422,5.965-1.267  c1.865-0.845,3.519-1.989,4.963-3.432c1.443-1.443,2.657-3.132,3.643-5.068c0.986-1.936,1.654-3.995,2.006-6.177l5.068-28.614  h9.714l-9.081,51.737h-9.291L496.225,110.503L496.225,110.503z M539.198,119.372c-3.379,0-6.458-0.616-9.239-1.848  c-2.781-1.232-5.138-2.921-7.074-5.068c-1.936-2.147-3.449-4.681-4.54-7.602c-1.091-2.921-1.636-6.036-1.636-9.344  c0-4.505,0.809-8.676,2.428-12.512c1.619-3.836,3.819-7.145,6.599-9.925c2.78-2.781,6.054-4.945,9.819-6.494  c3.766-1.549,7.796-2.323,12.09-2.323c3.167,0,5.948,0.44,8.341,1.32c2.393,0.88,4.452,2.024,6.177,3.432  c1.725,1.408,3.115,3.009,4.171,4.804c1.056,1.795,1.83,3.572,2.323,5.332l-9.08,3.484c-0.845-2.956-2.341-5.279-4.487-6.969  c-2.147-1.689-5.016-2.534-8.605-2.534c-2.815,0-5.438,0.546-7.867,1.636c-2.428,1.091-4.522,2.605-6.282,4.541  c-1.76,1.936-3.15,4.223-4.17,6.863c-1.021,2.64-1.531,5.508-1.531,8.605c0,2.112,0.317,4.135,0.95,6.071  c0.633,1.936,1.549,3.608,2.745,5.016c1.197,1.408,2.711,2.534,4.541,3.379c1.83,0.845,3.907,1.267,6.23,1.267  c3.308,0,6.282-0.88,8.922-2.64c2.64-1.759,4.875-4.153,6.705-7.18l7.813,3.695c-1.619,2.534-3.256,4.751-4.91,6.652  c-1.654,1.901-3.484,3.467-5.49,4.699c-2.006,1.232-4.224,2.147-6.652,2.745C545.059,119.073,542.296,119.372,539.198,119.372  L539.198,119.372z M585.55,87.907l25.341-21.962h13.304l-0.106,0.422l-23.757,20.061l15.732,30.831l-0.105,0.422h-11.403  l-12.037-24.602L583.228,101l-2.956,16.683h-9.714l13.304-75.6h9.714L585.55,87.907L585.55,87.907z M640.878,119.372  c3.238,0,6.212-0.405,8.922-1.214c2.71-0.81,5.05-1.953,7.021-3.431c1.971-1.479,3.484-3.273,4.54-5.385  c1.056-2.112,1.584-4.47,1.584-7.075c0-3.59-1.162-6.599-3.484-9.027c-2.323-2.428-5.596-4.241-9.82-5.438l-6.652-1.795  c-2.605-0.704-4.435-1.619-5.491-2.745c-1.056-1.126-1.584-2.358-1.584-3.695c0-2.112,0.951-3.748,2.851-4.91  c1.901-1.162,4.364-1.742,7.391-1.742c2.886,0,5.227,0.703,7.021,2.112c1.795,1.408,3.08,3.097,3.854,5.068l9.292-3.59  c-1.196-3.59-3.519-6.528-6.969-8.816c-3.449-2.288-7.637-3.432-12.565-3.432c-2.886,0-5.596,0.405-8.13,1.215  c-2.534,0.809-4.752,1.918-6.652,3.326c-1.901,1.408-3.414,3.097-4.54,5.068c-1.127,1.971-1.69,4.118-1.69,6.441  c0,3.942,1.214,6.986,3.643,9.133c2.428,2.147,5.508,3.713,9.239,4.698l5.913,1.584c2.956,0.774,5.068,1.76,6.335,2.956  c1.267,1.197,1.901,2.781,1.901,4.752c0,2.041-0.985,3.765-2.956,5.174c-1.971,1.408-4.646,2.112-8.025,2.112  c-3.027,0-5.702-0.827-8.024-2.481c-2.323-1.654-3.836-4.101-4.54-7.339l-9.292,3.696c0.563,2.111,1.408,4.065,2.534,5.86  c1.126,1.795,2.552,3.344,4.276,4.646c1.724,1.302,3.748,2.341,6.071,3.115C635.176,118.985,637.851,119.372,640.878,119.372z"></path></g><g id="Layer_4"></g><g id="Layer_3"></g><g id="Layer_2"></g></svg>