<svg width="32" height="32" viewBox="0 0 32 32" fill="#0174B7" xmlns="http://www.w3.org/2000/svg">
        <path fill-rule="evenodd" clip-rule="evenodd" d="M3.10199 7.51753C2.66602 8.37318 2.66602 9.49329 2.66602 11.7335V20.2668C2.66602 22.507 2.66602 23.6271 3.10199 24.4828C3.48548 25.2354 4.09741 25.8474 4.85005 26.2309C5.7057 26.6668 6.82581 26.6668 9.06602 26.6668H22.9327C25.1729 26.6668 26.293 26.6668 27.1486 26.2309C27.9013 25.8474 28.5132 25.2354 28.8967 24.4828C29.3327 23.6271 29.3327 22.507 29.3327 20.2668V11.7335C29.3327 9.49329 29.3327 8.37318 28.8967 7.51753C28.5132 6.76489 27.9013 6.15296 27.1486 5.76947C26.293 5.3335 25.1729 5.3335 22.9327 5.3335H9.06602C6.82581 5.3335 5.7057 5.3335 4.85005 5.76947C4.09741 6.15296 3.48548 6.76489 3.10199 7.51753ZM10.0869 10.9007C9.4797 10.4841 8.64975 10.6387 8.23319 11.2459C7.81663 11.8531 7.9712 12.6831 8.57843 13.0997L13.7366 16.6382C15.1001 17.5735 16.8986 17.5735 18.2621 16.6382L23.4203 13.0997C24.0275 12.6831 24.1821 11.8531 23.7655 11.2459C23.3489 10.6387 22.519 10.4841 21.9118 10.9007L16.7536 14.4392C16.2991 14.751 15.6996 14.751 15.2451 14.4392L10.0869 10.9007Z"/>
    </svg>