<svg xmlns:xlink="http://www.w3.org/1999/xlink" data-v-5d16203e="" width="32" height="32" viewBox="0 0 32 32" fill="none" xmlns="http://www.w3.org/2000/svg"><path data-v-5d16203e="" fill-rule="evenodd" clip-rule="evenodd" d="M4 9.33333C4 6.38781 6.38781 4 9.33333 4H22.6667C25.6122 4 28 6.38781 28 9.33333V22.6667C28 25.6122 25.6122 28 22.6667 28H9.33333C6.38781 28 4 25.6122 4 22.6667V9.33333ZM16 13.3333C14.5272 13.3333 13.3333 14.5272 13.3333 16C13.3333 17.4728 14.5272 18.6667 16 18.6667C17.4728 18.6667 18.6667 17.4728 18.6667 16C18.6667 14.5272 17.4728 13.3333 16 13.3333ZM10.6667 16C10.6667 13.0545 13.0545 10.6667 16 10.6667C18.9455 10.6667 21.3333 13.0545 21.3333 16C21.3333 18.9455 18.9455 21.3333 16 21.3333C13.0545 21.3333 10.6667 18.9455 10.6667 16ZM23.3333 10C24.0697 10 24.6667 9.40305 24.6667 8.66667C24.6667 7.93029 24.0697 7.33333 23.3333 7.33333C22.597 7.33333 22 7.93029 22 8.66667C22 9.40305 22.597 10 23.3333 10Z" fill="#0174B7"></path></svg>