<svg xmlns:xlink="http://www.w3.org/1999/xlink" data-v-5d16203e="" width="32" height="32" viewBox="0 0 32 32" fill="none" xmlns="http://www.w3.org/2000/svg"><path data-v-5d16203e="" fill-rule="evenodd" clip-rule="evenodd" d="M4 10.4C4 8.15979 4 7.03969 4.43597 6.18404C4.81947 5.43139 5.43139 4.81947 6.18404 4.43597C7.03969 4 8.15979 4 10.4 4H21.6C23.8402 4 24.9603 4 25.816 4.43597C26.5686 4.81947 27.1805 5.43139 27.564 6.18404C28 7.03969 28 8.15979 28 10.4V21.6C28 23.8402 28 24.9603 27.564 25.816C27.1805 26.5686 26.5686 27.1805 25.816 27.564C24.9603 28 23.8402 28 21.6 28H10.4C8.15979 28 7.03969 28 6.18404 27.564C5.43139 27.1805 4.81947 26.5686 4.43597 25.816C4 24.9603 4 23.8402 4 21.6V10.4ZM9.33333 16C9.33333 15.2636 9.93029 14.6667 10.6667 14.6667C11.403 14.6667 12 15.2636 12 16V21.3333C12 22.0697 11.403 22.6667 10.6667 22.6667C9.93029 22.6667 9.33333 22.0697 9.33333 21.3333V16ZM10.6667 12C11.403 12 12 11.403 12 10.6667C12 9.93029 11.403 9.33333 10.6667 9.33333C9.93029 9.33333 9.33333 9.93029 9.33333 10.6667C9.33333 11.403 9.93029 12 10.6667 12ZM18.6667 17.3333C17.9303 17.3333 17.3333 17.9303 17.3333 18.6667V21.3333C17.3333 22.0697 16.7364 22.6667 16 22.6667C15.2636 22.6667 14.6667 22.0697 14.6667 21.3333V18.6667V16C14.6667 15.2636 15.2636 14.6667 16 14.6667C16.3678 14.6667 16.7009 14.8156 16.9421 15.0565C17.4643 14.8066 18.0491 14.6667 18.6667 14.6667C20.8758 14.6667 22.6667 16.4575 22.6667 18.6667V21.3333C22.6667 22.0697 22.0697 22.6667 21.3333 22.6667C20.597 22.6667 20 22.0697 20 21.3333V18.6667C20 17.9303 19.403 17.3333 18.6667 17.3333Z" fill="#0174B7"></path></svg>