<svg data-v-5d16203e="" viewBox="0 0 32 32" fill="#0174B7" xmlns="http://www.w3.org/2000/svg"><path data-v-5d16203e="" fill-rule="evenodd" clip-rule="evenodd" d="M4 14.6665C4 8.03909 9.37258 2.6665 16 2.6665C22.6274 2.6665 28 8.03909 28 14.6665C28 18.7017 25.587 22.1222 22.8066 24.5318L18.218 28.5086C16.9451 29.6118 15.0549 29.6118 13.782 28.5086L9.19341 24.5319C6.41302 22.1222 4 18.7017 4 14.6665ZM16 17.3332C17.4728 17.3332 18.6667 16.1393 18.6667 14.6665C18.6667 13.1937 17.4728 11.9998 16 11.9998C14.5272 11.9998 13.3333 13.1937 13.3333 14.6665C13.3333 16.1393 14.5272 17.3332 16 17.3332Z"></path></svg>