<svg xmlns:xlink="http://www.w3.org/1999/xlink" data-v-5d16203e="" width="32" height="32" viewBox="0 0 32 32" fill="none" xmlns="http://www.w3.org/2000/svg"><path data-v-5d16203e="" fill-rule="evenodd" clip-rule="evenodd" d="M26.6659 10.6692C26.6659 10.6684 26.6659 10.6676 26.6659 10.6668C26.6659 10.6668 26.6659 10.6667 26.6659 10.6666L29.166 7.96913C29.5735 7.52943 29.207 6.821 28.6127 6.89961L25.4804 7.31387C24.5026 6.10584 23.0078 5.3335 21.3326 5.3335C18.3871 5.3335 15.9993 7.72131 15.9993 10.6668C15.9993 11.3701 16.1354 12.0416 16.3827 12.6563C12.3875 12.5629 8.10982 11.7723 5.94709 7.48736C5.67947 6.95713 4.91227 6.92642 4.74191 7.4954C3.17693 12.7221 5.93108 19.5131 11.999 21.3335C10.4853 22.8135 6.59411 23.2154 3.40982 22.9238C2.79018 22.867 2.40117 23.5729 2.88035 23.9699C5.55039 26.1817 9.25356 26.6668 12.6658 26.6668C21.3315 26.6668 27.3312 19.3348 26.6659 10.6692Z" fill="#0174B7"></path></svg>